<svg height="512" viewBox="0 0 60 56" width="512" xmlns="http://www.w3.org/2000/svg"><g id="Page-1" fill="none" fill-rule="evenodd"><g id="142---Controller" fill-rule="nonzero" transform="translate(-1)"><path id="Shape" d="m60 42c-.0021305 5.0379707-2.9148926 9.6211211-7.4752821 11.762149-4.5603896 2.141028-9.947225 1.4544023-13.8247179-1.762149h-15.4c-4.412684 3.6654491-10.7062879 4.0053152-15.48804096.8363824-4.78175304-3.1689328-6.92118844-9.0974887-5.26497433-14.5896879s6.7165278-9.2496165 12.45301529-9.2466945h32c3.4478144 0 6.7544152 1.3696389 9.1923882 3.8076118 2.4379729 2.437973 3.8076118 5.7445738 3.8076118 9.1923882z" fill="#7f8e94"/><path id="Shape" d="m47 29-3-.0002342c6.8637166.0301872 12.5215362 5.3909908 12.921211 12.2431264s-4.5965221 12.8343722-11.410211 13.6621078c4.8060406.5835041 9.5381902-1.5519979 12.2803937-5.5418379 2.7422036-3.9898399 3.0401261-9.1729713.7731382-13.4507358-2.2669878-4.2777645-6.7232859-6.9414116-11.5645319-6.9124263z" fill="#545c60"/><circle id="Oval" cx="15" cy="42" fill="#37474f" r="9"/><circle id="Oval" cx="47" cy="36" fill="#f44335" r="2"/><circle id="Oval" cx="47" cy="48" fill="#02a9f4" r="2"/><circle id="Oval" cx="53" cy="42" fill="#ffdc00" r="2"/><circle id="Oval" cx="41" cy="42" fill="#60a917" r="2"/><path id="Shape" d="m35 26v3h-8v-3c.0032948-1.1032019.8967981-1.9967052 2-2h4c1.1032019.0032948 1.9967052.8967981 2 2z" fill="#607d8b"/><path id="Shape" d="m42 3v7c0 3.3137085-2.6862915 6-6 6h-1c-1.1032019.0032948-1.9967052.8967981-2 2v6h-4v-6c0-3.3137085 2.6862915-6 6-6h1c1.1032019-.0032948 1.9967052-.8967981 2-2v-7c.0032948-1.10320187.8967981-1.9967052 2-2 1.1011688.00816722 1.9918328.89883122 2 2z" fill="#283593"/><path id="Shape" d="m19 40h-2v-2c0-.5522847-.4477153-1-1-1h-2c-.5522847 0-1 .4477153-1 1v2h-2c-.5522847 0-1 .4477153-1 1v2c0 .5522847.4477153 1 1 1h2v2c0 .5522847.4477153 1 1 1h2c.5522847 0 1-.4477153 1-1v-2h2c.5522847 0 1-.4477153 1-1v-2c0-.5522847-.4477153-1-1-1z" fill="#cfd8dc"/><path id="Shape" d="m27 34h-2c-.5522847 0-1-.4477153-1-1s.4477153-1 1-1h2c.5522847 0 1 .4477153 1 1s-.4477153 1-1 1z" fill="#f5f5f5"/><path id="Shape" d="m37 34h-6c-.5522847 0-1-.4477153-1-1s.4477153-1 1-1h6c.5522847 0 1 .4477153 1 1s-.4477153 1-1 1z" fill="#f5f5f5"/><g fill="#000"><path id="Shape" d="m47 28h-11v-2c-.0052514-1.2667854-.8056491-2.3937454-2-2.816v-5.184c0-.5522847.4477153-1 1-1h1c3.8641657-.0044086 6.9955914-3.1358343 7-7v-7c0-1.65685425-1.3431458-3-3-3s-3 1.34314575-3 3v7c0 .5522847-.4477153 1-1 1h-1c-3.8641657.0044086-6.9955914 3.1358343-7 7v5.184c-1.1943509.4222546-1.9947486 1.5492146-2 2.816v2h-11c-6.13206906-.0014251-11.55142587 3.9879075-13.37200003 9.8434845-1.82057417 5.8555771.38138489 12.2144747 5.43322716 15.6902714s11.77771827 3.259478 16.59577287-.5337559h14.686c4.8180546 3.7932339 11.5439306 4.0095526 16.5957729.5337559 5.0518422-3.4757967 7.2538013-9.8346943 5.4332271-15.6902714-1.8205741-5.855577-7.2399309-9.8449096-13.372-9.8434845zm-17-10c.0033061-2.7600532 2.2399468-4.9966939 5-5h1c1.6568542 0 3-1.3431458 3-3v-7c0-.55228475.4477153-1 1-1s1 .44771525 1 1v7c-.0033061 2.7600532-2.2399468 4.9966939-5 5h-1c-1.6568542 0-3 1.3431458-3 3v5h-2zm-2 8c0-.5522847.4477153-1 1-1h4c.5522847 0 1 .4477153 1 1v2h-6zm19 28c-2.7997524-.0017608-5.510932-.9815348-7.665-2.77-.1785892-.1479863-.4030656-.2292927-.635-.23h-15.4c-.2333088-.0002229-.4593523.0811386-.639.23-4.0731605 3.3841097-9.8830402 3.6982219-14.29731652.772987-4.41427635-2.9252348-6.38922272-8.3981641-4.86007197-13.4681279 1.52915076-5.0699637 6.20084099-8.5382023 11.49638849-8.5348591h32c6.6274169.0000001 11.9999997 5.3725831 11.9999997 12s-5.3725828 11.9999999-11.9999997 12z"/><path id="Shape" d="m15 32c-5.5228475 0-10 4.4771525-10 10s4.4771525 10 10 10 10-4.4771525 10-10c-.0060624-5.5203344-4.4796656-9.9939376-10-10zm0 18c-4.418278 0-8-3.581722-8-8s3.581722-8 8-8 8 3.581722 8 8c-.0049599 4.4162219-3.5837781 7.9950401-8 8z"/><path id="Shape" d="m19 39h-1v-1c0-1.1045695-.8954305-2-2-2h-2c-1.1045695 0-2 .8954305-2 2v1h-1c-1.1045695 0-2 .8954305-2 2v2c0 1.1045695.8954305 2 2 2h1v1c0 1.1045695.8954305 2 2 2h2c1.1045695 0 2-.8954305 2-2v-1h1c1.1045695 0 2-.8954305 2-2v-2c0-1.1045695-.8954305-2-2-2zm0 4h-2c-.5522847 0-1 .4477153-1 1v2h-2v-2c0-.5522847-.4477153-1-1-1h-2v-2h2c.5522847 0 1-.4477153 1-1v-2h2v2c0 .5522847.4477153 1 1 1h2z"/><path id="Shape" d="m28.293 39.293-2 2c-.2599566.2510745-.3642126.6228779-.2726972.9725073.0915155.3496295.3645604.6226744.7141899.7141899.3496294.0915154.7214328-.0127406.9725073-.2726972l2-2c.3789722-.3923789.3735524-1.0160848-.0121814-1.4018186s-1.0094397-.3911536-1.4018186-.0121814z"/><path id="Shape" d="m34.293 39.293-2 2c-.2599566.2510745-.3642126.6228779-.2726972.9725073.0915155.3496295.3645604.6226744.7141899.7141899.3496294.0915154.7214328-.0127406.9725073-.2726972l2-2c.3789722-.3923789.3735524-1.0160848-.0121814-1.4018186s-1.0094397-.3911536-1.4018186-.0121814z"/><path id="Shape" d="m47 39c1.6568542 0 3-1.3431458 3-3s-1.3431458-3-3-3-3 1.3431458-3 3 1.3431458 3 3 3zm0-4c.5522847 0 1 .4477153 1 1s-.4477153 1-1 1-1-.4477153-1-1 .4477153-1 1-1z"/><path id="Shape" d="m47 45c-1.6568542 0-3 1.3431458-3 3s1.3431458 3 3 3 3-1.3431458 3-3-1.3431458-3-3-3zm0 4c-.5522847 0-1-.4477153-1-1s.4477153-1 1-1 1 .4477153 1 1-.4477153 1-1 1z"/><path id="Shape" d="m53 39c-1.6568542 0-3 1.3431458-3 3s1.3431458 3 3 3 3-1.3431458 3-3-1.3431458-3-3-3zm0 4c-.5522847 0-1-.4477153-1-1s.4477153-1 1-1 1 .4477153 1 1-.4477153 1-1 1z"/><path id="Shape" d="m41 39c-1.6568542 0-3 1.3431458-3 3s1.3431458 3 3 3 3-1.3431458 3-3-1.3431458-3-3-3zm0 4c-.5522847 0-1-.4477153-1-1s.4477153-1 1-1 1 .4477153 1 1-.4477153 1-1 1z"/></g></g></g></svg>